# xmcd
#
# Track frame offsets:
#       150
#       20396
#       35810
#       49816
#       65635
#       100165
#       125430
#
# Disc length: 1884 seconds
#
# Revision: 1
# Processed by: cddbd v1.5.2PL0 Copyright (c) Steve Scherf et al.
# Submitted via: FreeDbEdit v0.1
#
DISCID=5e075a07
DTITLE=The Temptations - Wings of Love
DYEAR=1976
DGENRE=R&B
TTITLE0=Sweet Gypsy Jane
TTITLE1=Sweetness in the Dark
TTITLE2=Up the Creek (Without a Paddle)
TTITLE3=China Doll
TTITLE4=Mary Ann
TTITLE5=Dream World (Wings of Love)
TTITLE6=Paradise
EXTD=corrected
EXTT0=
EXTT1=
EXTT2=
EXTT3=
EXTT4=
EXTT5=
EXTT6=
PLAYORDER=
